<?xml version="1.0" encoding="UTF-8"?>
<svg id="a" data-name="Layer 1" xmlns="http://www.w3.org/2000/svg" viewBox="0 0 1000 1000">
  <rect x="140" y="140" width="720" height="720" rx="163.56" ry="163.56" fill="#46c800" stroke-width="0"/>
  <path d="M745.69,503.56c0,125.86-102.28,228.14-228.14,228.14s-228.14-102.28-228.14-228.14c0-125.86,102.28-228.14,228.14-228.14,13.88,0,27.95,1.33,41.44,3.8,10.27,1.9,17.11,11.79,15.21,22.05-1.9,10.27-11.79,17.11-22.05,15.21-11.22-2.09-23-3.04-34.6-3.04-104.75,0-190.11,85.36-190.11,190.11s85.36,190.11,190.11,190.11c104.75,0,190.11-85.36,190.11-190.11,0-11.6-1.14-23.19-3.04-34.6-1.9-10.27,4.94-20.15,15.21-22.05,10.46-1.9,20.15,4.94,22.05,15.21,2.47,13.5,3.8,27.57,3.8,41.44h0ZM533.9,390.63c10.46,1.52,19.96-5.7,21.48-16.16,1.52-10.46-5.7-19.96-16.16-21.48-7.22-.95-14.45-1.52-21.67-1.52-83.84,0-152.09,68.25-152.09,152.09,0,83.84,68.25,152.09,152.09,152.09,83.84,0,152.09-68.25,152.09-152.09,0-7.22-.57-14.45-1.52-21.67-1.52-10.46-11.03-17.68-21.48-16.16-10.46,1.52-17.68,11.03-16.16,21.48.76,5.32,1.14,10.84,1.14,16.35,0,62.93-51.14,114.07-114.07,114.07-62.93,0-114.07-51.14-114.07-114.07s51.14-114.07,114.07-114.07c5.51,0,11.03.38,16.35,1.14ZM493.78,448.42c-7.03-7.79-19.01-8.56-26.81-1.52-16.16,14.45-25.29,35.17-25.29,56.65,0,42.02,34.03,76.05,76.05,76.05,21.67,0,42.21-9.32,56.65-25.29,7.03-7.79,6.27-19.77-1.52-26.81s-19.77-6.27-26.81,1.52c-7.22,7.98-17.49,12.74-28.33,12.74-20.91,0-38.02-17.11-38.02-38.02,0-10.84,4.56-21.1,12.74-28.33,7.79-7.03,8.56-19.01,1.52-26.81l-.19-.19ZM523.25,471.24c-7.41,7.41-7.41,19.39,0,26.81,3.8,3.8,8.56,5.51,13.5,5.51s9.7-1.9,13.5-5.51l89.54-89.54h49.24c5.13,0,9.89-2.09,13.5-5.51l38.02-38.02c5.51-5.51,7.03-13.69,4.18-20.72-2.85-7.03-9.89-11.79-17.49-11.79h-38.02s0-38.02,0-38.02c0-7.6-4.56-14.64-11.79-17.49-7.22-3.04-15.21-1.33-20.72,4.18l-38.02,38.02c-3.61,3.61-5.51,8.36-5.51,13.5v49.24s-89.54,89.54-89.54,89.54l-.38-.19Z" fill="#fff" stroke-width="0"/>
</svg>