<?xml version="1.0" encoding="UTF-8"?>
<svg id="a" data-name="Layer 1" xmlns="http://www.w3.org/2000/svg" viewBox="0 0 1000 1000">
  <rect x="140" y="140" width="720" height="720" rx="163.56" ry="163.56" fill="#46c800" stroke-width="0"/>
  <g>
    <path d="M539.85,751.22c-19.02-13.61-38.06-27.2-57.07-40.83-23.13-16.6-46.24-33.22-69.35-49.85-6.22-4.48-6.68-8.52-1.44-14.97,7.55,5.41,15.14,10.83,22.71,16.27,17.79,12.79,35.48,25.72,53.38,38.36,27.92,19.71,65.03,6.68,73.64-25.71,4.96-18.65-2-38.26-18.29-50.15-23.24-16.96-46.68-33.64-70.02-50.45-2.15-1.55-4.27-3.13-6.36-4.67,3.93-6.72,8.28-7.85,14.1-3.66,41.04,29.48,82.06,58.98,123.06,88.52,5.54,3.99,6.12,8.08,2.07,13.72-18.78,26.16-37.56,52.3-56.45,78.38-1.43,1.98-3.65,3.38-5.5,5.05h-4.48Z" fill="#fff" stroke-width="0"/>
    <path d="M474.02,519.9c1.26-22.21,6.81-43.17,14.86-63.53,10.49-26.53,24.02-51.34,43.47-72.43,6-6.5,13.23-11.97,20.34-17.32,5.25-3.95,11.59-4.25,18-2.83,3.25.72,4.61,2.15,4.31,5.8-1.27,15.74-5.58,30.77-10.59,45.59-4.67,13.82-9.83,27.48-14.83,41.19-1.45,3.99-1.12,7.64,1.74,10.85,2.63,2.95,6.26,4.25,9.7,2.74,2.75-1.2,5.58-3.61,7-6.22,11.32-20.87,18.02-43.36,22.93-66.49,2.13-10.03,4.38-20.13,7.82-29.75,1.93-5.38,5.84-10.39,9.9-14.56,5.47-5.62,12.93-4.64,19.88-3.29,11.54,2.24,22.04,7.3,32.08,13.21,33.17,19.54,61.26,44.79,84.84,75.22,18.62,24.03,20.64,50.34,11.45,78.26-7.57,23.01-20.56,42.95-36.25,61.15-24.41,28.33-52.65,51.85-86.95,67.48-13.97,6.37-14.06,6.27-26.48-2.73-41.04-29.76-82.04-59.58-123.16-89.25-3.15-2.27-5.18-4.96-5.87-8.53-1.57-8.16-2.84-16.38-4.24-24.57Z" fill="#fff" stroke-width="0"/>
    <path d="M554.9,343.25c-26.53,10.13-43.25,30.52-57.42,52.98-9.65,15.29-17.29,31.87-25.48,48.05-1.51,2.97-2.95,4.15-5.99,3.37-15.98-4.08-32.39-6.97-47.83-12.55-24.43-8.83-36.43-28.56-41.18-53.21-4.09-21.22-2.91-42.49.59-63.6,2.77-16.71,13.2-24.6,32.18-25.33,19.9-.77,39.1,3.38,58.06,8.83,27.49,7.89,53.53,19.08,77.6,34.65,3.22,2.08,6.24,4.48,9.47,6.82Z" fill="#fff" stroke-width="0"/>
    <path d="M354.62,328.09c0,9.86-.54,19.26.14,28.57.86,11.86,2.08,23.76,4.29,35.42,3.23,17.06,12.09,31.26,24.76,43.09,3.05,2.85,6,5.82,9.03,8.69,13.29,12.58,15.61,27.63,9.46,44.23-2.05,5.53-5.42,10.57-8.15,15.85-2.03,3.93-1.97,7.8.85,11.3,2.84,3.52,6.74,4.64,10.83,3.02,2.19-.87,4.33-2.76,5.66-4.74,10.67-15.89,16.11-33.14,12.96-52.48-.09-.57-.01-1.17-.01-1.93,12.95,2.93,25.75,5.83,38.33,8.67-2.17,10.35-4.68,20.61-6.41,31.01-2.59,15.56-2.64,31.16.96,46.66.34,1.45-.57,3.52-1.52,4.87-2.56,3.65-5.55,6.99-8.17,10.61-1.39,1.93-2.68,2.68-5.19,2.01-34.67-9.27-69.38-18.4-104.05-27.69-1.86-.5-3.76-1.83-5.05-3.29-9.93-11.27-15.36-24.81-18.4-39.23-9.82-46.58-6.25-92.21,11.11-136.56,2.63-6.71,6.77-12.92,10.87-18.92,4.29-6.28,10.8-9.07,17.68-9.16Z" fill="#fff" stroke-width="0"/>
    <path d="M423.5,629.14c10.56-14.67,20.91-29.05,31.44-43.69,1.27.83,2.38,1.49,3.41,2.23,24.56,17.67,49.18,35.24,73.64,53.05,12.02,8.76,14.83,24.42,7,36.56-8.43,13.07-25.69,16.31-38.84,6.97-21.14-15.02-42.12-30.25-63.17-45.4-4.35-3.13-8.69-6.27-13.48-9.72Z" fill="#fff" stroke-width="0"/>
    <path d="M417.58,601.93c-9.29,15.78-22.61,28.31-29.64,45.56-25.28-6.6-50.81-13.26-76.63-19.99,4.39-16.81,8.66-33.18,13.02-49.88,31.25,8.15,62.11,16.19,93.25,24.31Z" fill="#fff" stroke-width="0"/>
    <path d="M329.69,558.37c1.57-9.41,4.91-11.69,13.52-9.45,30.25,7.86,60.49,15.75,90.74,23.64,1.25.33,2.46.78,4.22,1.35-2.39,3.36-4.4,6.45-6.73,9.28-.59.71-2.35,1-3.38.74-32.71-8.44-65.39-16.96-98.37-25.55Z" fill="#fff" stroke-width="0"/>
    <path d="M306.84,647.07c12.17,3.14,24.42,6.26,36.65,9.45,15.56,4.06,31.11,8.11,46.62,12.34,2.01.55,3.87,1.94,5.59,3.22,5.38,3.99,10.65,8.11,15.98,12.17,1.64,1.25,3.31,2.45,4.67,4.26-14.08-3.64-28.16-7.26-42.23-10.92-20.31-5.29-40.61-10.61-60.91-15.9-7.99-2.08-10.19-6.9-6.38-14.62Z" fill="#fff" stroke-width="0"/>
  </g>
</svg>