<svg width="95" height="95" viewBox="0 0 95 95" fill="none" xmlns="http://www.w3.org/2000/svg">
<rect width="94.9126" height="94.9126" rx="13" fill="#46C800"/>
<g clip-path="url(#clip0_38_527)">
<path d="M21.9028 64.9786C22.1584 64.1573 22.7242 63.5549 23.29 62.9526C25.243 60.9083 27.1778 58.8458 29.1308 56.7833C29.3498 56.546 29.5506 56.2905 29.6966 55.9984C33.1281 49.7013 36.5595 43.4043 39.9727 37.1072C40.7758 35.6287 42.1265 34.8439 43.5867 35.0264C44.7366 35.1724 45.6492 35.866 46.5801 36.5231H44.5906C44.5906 36.5231 44.5906 36.5778 44.5906 36.6144C45.9413 36.9246 47.292 37.2349 48.6609 37.5452C49.5918 37.7643 50.5226 37.9285 51.4535 38.1841C52.0923 38.3666 52.6947 38.2753 53.3153 38.1476C55.0857 37.746 56.838 37.381 58.6085 36.9977C59.9409 36.7056 61.1455 37.4175 61.4011 38.6404C61.6749 39.918 60.9083 41.0497 59.5393 41.3417C57.3856 41.8163 55.2135 42.2726 53.0415 42.7654C52.3296 42.9297 51.6543 42.8019 50.979 42.6377C48.6791 42.1083 46.3611 41.5973 44.0613 41.0679C43.97 41.0497 43.8788 41.0679 43.7692 41.0862C46.5984 42.3274 49.3362 43.7511 52.2201 44.8097C51.3257 45.12 50.3584 45.4668 49.4092 45.7771C48.4236 46.1056 47.4927 46.5072 46.7626 47.4746C46.2151 46.7445 45.7222 46.0691 45.1929 45.339C44.3533 46.7992 43.532 48.2411 42.6923 49.7196C42.8566 49.8291 43.0026 49.9386 43.1487 50.0299C45.2842 51.3623 47.4015 52.6947 49.537 53.9907C50.5956 54.6295 51.125 55.5056 51.125 56.765C51.1432 59.5942 51.2345 62.4233 51.271 65.2524C51.2892 67.0229 50.0846 68.2276 48.4236 68.1545C47.1824 68.0998 46.0873 67.1324 45.9778 65.8912C45.8865 64.9421 45.9048 63.993 45.8683 63.0256C45.8318 61.4742 45.8135 59.9227 45.777 58.3712C45.777 58.1887 45.6857 57.9149 45.5397 57.8237C42.8201 56.1079 40.0822 54.4105 37.3079 52.6947C37.2166 52.859 37.1436 53.005 37.0706 53.1511C36.1762 54.958 35.3184 56.765 34.4057 58.5538C34.0772 59.1744 33.6574 59.7767 33.1828 60.306C31.0838 62.5693 28.9483 64.7961 26.831 67.0411C25.097 68.8846 22.8702 68.4466 21.9941 66.0738C21.9941 66.0373 21.9576 66.019 21.9211 66.0008C21.9211 65.654 21.9211 65.3254 21.9211 64.9786H21.9028ZM64.577 54.2097C64.212 55.2683 64.3945 56.2357 64.8873 57.2213C65.7452 58.9736 66.5118 60.7441 67.3331 62.5145C67.9355 63.847 68.5378 65.1794 69.1584 66.5118C69.7789 67.8078 71.0384 68.4283 72.2978 68.0815C74.0318 67.607 74.7619 65.9095 73.977 64.1755C72.6811 61.3464 71.3852 58.5173 70.1075 55.6699C69.9797 55.3778 69.9432 55.0128 69.998 54.7025C70.4725 52.5122 70.9289 50.3037 71.4764 48.1316C71.7685 46.9817 71.4764 46.1239 70.6733 45.3025C68.1545 42.7289 65.6539 40.1371 63.1533 37.5452C63.0621 37.4357 62.9525 37.3445 62.7335 37.1619C63.4089 38.5856 63.3906 39.845 62.7335 41.1227C62.6423 41.3052 62.6605 41.579 62.697 41.798C63.0438 43.313 63.4271 44.8097 63.7739 46.3246C64.1755 48.0951 63.4271 49.4641 61.7114 50.0664C60.3607 50.541 59.0283 51.0338 57.6593 51.4536C56.2904 51.8734 55.5968 52.7678 55.5421 54.1732C55.3778 57.8967 55.2135 61.6384 55.0492 65.3619C55.0127 66.165 55.2683 66.8769 55.8706 67.4244C56.7102 68.1911 57.6776 68.3918 58.718 67.9538C59.8496 67.4975 60.3424 66.5666 60.3972 65.3802C60.525 62.259 60.671 59.1379 60.817 56.0349C60.817 55.8889 60.9265 55.6699 61.0543 55.5969C62.2407 54.958 63.4454 54.3557 64.6865 53.7169C64.65 53.9177 64.6318 54.0637 64.5953 54.2097H64.577ZM52.4574 35.1359C53.7351 35.6835 55.031 35.5922 56.2356 34.8804C58.2252 33.7122 58.791 30.9013 57.4768 29.0213C56.1809 27.1596 53.0232 26.32 50.7782 28.8388C50.4131 27.5429 49.7378 26.5025 48.4784 25.9367C47.2007 25.3709 45.9413 25.3891 44.7549 26.0827C42.5828 27.3239 41.9805 30.08 43.4407 32.0878C44.7001 33.84 47.7118 34.7161 50.0481 32.179C50.3949 33.5479 51.1797 34.5701 52.4574 35.1177V35.1359ZM59.8496 43.0757C59.229 43.2765 58.5902 43.3678 57.9514 43.4955C57.6958 43.5503 57.5863 43.6598 57.5863 43.9336C57.5681 44.8645 57.5498 44.8645 56.6737 45.1747C56.6189 45.1747 56.5824 45.2112 56.5277 45.2295C54.1549 46.0509 51.7638 46.854 49.391 47.6936C48.1133 48.1499 47.511 49.3728 47.9308 50.5957C48.3323 51.7456 49.5735 52.3297 50.8147 51.9099C54.0454 50.8147 57.2578 49.7196 60.4702 48.6062C61.4923 48.2594 62.0217 47.4745 62.0399 46.3977C62.0399 45.3938 62.0399 44.3899 62.0582 43.386C62.0582 42.9662 62.0582 42.5464 62.0582 42.2361C61.3098 42.5464 60.598 42.8749 59.8679 43.1122L59.8496 43.0757Z" fill="white"/>
</g>
<defs>
<clipPath id="clip0_38_527">
<rect width="52.3845" height="42.6377" fill="white" transform="translate(21.9028 25.5535)"/>
</clipPath>
</defs>
</svg>
