<?xml version="1.0" encoding="UTF-8"?>
<svg id="a" data-name="Layer 1" xmlns="http://www.w3.org/2000/svg" viewBox="0 0 1000 1000">
  <rect x="140" y="140" width="720" height="720" rx="163.56" ry="163.56" fill="#46c800" stroke-width="0"/>
  <path d="M500,294.11c-113.71,0-205.89,92.18-205.89,205.89s92.18,205.89,205.89,205.89,205.89-92.18,205.89-205.89c-.12-113.66-92.23-205.77-205.89-205.89ZM517.16,670.7v-33.44c0-9.48-7.68-17.16-17.16-17.16s-17.16,7.68-17.16,17.16v33.44c-81.13-8.26-145.28-72.41-153.54-153.54h33.44c9.48,0,17.16-7.68,17.16-17.16s-7.68-17.16-17.16-17.16h-33.44c8.26-81.13,72.41-145.28,153.54-153.54v33.44c0,9.48,7.68,17.16,17.16,17.16s17.16-7.68,17.16-17.16v-33.44c81.13,8.26,145.28,72.41,153.54,153.54h-33.44c-9.48,0-17.16,7.68-17.16,17.16s7.68,17.16,17.16,17.16h33.44c-8.26,81.13-72.41,145.28-153.54,153.54h0ZM568.63,500c0,9.48-7.68,17.16-17.16,17.16h-34.31v34.31c0,9.48-7.68,17.16-17.16,17.16s-17.16-7.68-17.16-17.16v-34.31h-34.31c-9.48,0-17.16-7.68-17.16-17.16s7.68-17.16,17.16-17.16h34.31v-34.31c0-9.48,7.68-17.16,17.16-17.16s17.16,7.68,17.16,17.16v34.31h34.31c9.48,0,17.16,7.68,17.16,17.16Z" fill="#fff" stroke-width="0"/>
</svg>