<?xml version="1.0" encoding="UTF-8"?>
<svg id="a" data-name="Layer 1" xmlns="http://www.w3.org/2000/svg" viewBox="0 0 1000 1000">
  <rect x="151.22" y="90.33" width="3.56" height="0" fill="#000" stroke-width="0"/>
  <rect x="140" y="140" width="720" height="720" rx="163.56" ry="163.56" fill="#46c800" stroke-width="0"/>
  <g>
    <path d="M281.53,646.12c2.26-6.96,6.97-12.19,11.9-17.36,16.67-17.5,33.25-35.09,49.79-52.71,1.86-1.99,3.53-4.26,4.83-6.65,29.3-53.76,58.53-107.56,87.8-161.34,6.88-12.64,18.46-19.3,30.92-17.7,9.87,1.27,17.57,7.18,25.62,12.76h-16.98c-.03.25-.06.51-.09.76,11.56,2.64,23.12,5.29,34.69,7.91,7.94,1.8,15.97,3.27,23.8,5.45,5.45,1.52,10.54.83,15.83-.35,15.04-3.36,30.11-6.6,45.18-9.82,11.44-2.45,21.69,3.63,23.91,14.09,2.33,10.96-4.21,20.57-15.87,23.12-18.46,4.05-36.96,7.91-55.4,12.09-6.09,1.38-11.82.26-17.65-1.06-19.7-4.49-39.41-8.93-59.13-13.37-.76-.17-1.58-.13-2.48.18,24.17,10.55,47.56,22.78,72.14,31.83-7.65,2.62-15.82,5.52-24.07,8.22-8.41,2.75-16.39,6.12-22.49,14.61-4.67-6.33-8.93-12.12-13.52-18.35-7.13,12.48-14.15,24.75-21.39,37.41,1.33.9,2.59,1.8,3.91,2.62,18.15,11.31,36.23,22.73,54.51,33.84,9.03,5.49,13.51,12.99,13.6,23.64.21,24.17.9,48.33,1.21,72.5.19,15.05-10.15,25.43-24.29,24.79-10.58-.48-19.96-8.77-20.95-19.33-.76-8.1-.68-16.28-.86-24.42-.29-13.25-.41-26.5-.8-39.74-.05-1.6-.85-3.89-2.06-4.65-23.26-14.66-46.63-29.13-70.28-43.83-.74,1.38-1.45,2.61-2.07,3.88-7.58,15.39-14.93,30.9-22.83,46.13-2.77,5.34-6.32,10.48-10.4,14.89-17.89,19.35-36.13,38.38-54.19,57.57-14.86,15.78-33.77,12.04-41.32-8.2-.09-.25-.36-.43-.55-.65,0-2.91,0-5.83,0-8.74Z" fill="#fff" stroke-width="0"/>
    <path d="M631.27,409.44c16,16.51,32,33.02,48,49.54,6.58,6.8,13.16,13.61,19.74,20.41,5.89,6.09,8.05,12.93,5.95,21.51-4.73,19.34-8.98,38.81-13.19,58.27-.47,2.19.03,4.94.97,7.03,11,24.38,22.21,48.67,33.29,73.01,4.97,10.91,3.15,21.13-4.85,28.3-10.54,9.44-27.17,7.16-34.35-5.06-3.37-5.74-5.9-11.99-8.69-18.06-9.89-21.53-19.51-43.19-29.69-64.59-4.03-8.46-5.64-16.71-2.54-25.67.37-1.08.51-2.24.96-4.26-4.86,2.5-9.12,4.7-13.38,6.89-5.69,2.93-11.32,5.98-17.08,8.75-2.17,1.04-2.8,2.37-2.89,4.69-1.09,26.62-2.29,53.23-3.48,79.85-.55,12.44-8.94,21.97-20.27,23.1-11.61,1.15-21.87-5.81-24.66-16.97-.62-2.5-.79-5.2-.68-7.78,1.28-31.13,2.66-62.25,3.99-93.38.36-8.55,2.78-16.06,10.38-20.97,1.56-1.01,3.31-1.81,5.07-2.42,12.49-4.36,25.01-8.6,37.49-12.98,14.47-5.07,21.01-16.67,17.63-31.53-2.97-13.04-6.24-26.01-9.25-39.04-.4-1.74-.71-4.01.06-5.42,5.92-10.89,6.06-21.84,1.47-33.21Z" fill="#fff" stroke-width="0"/>
    <path d="M521.53,366.36c-15.92,17.23-34.12,15.17-45.29,8.76-13.06-7.5-19.98-22.97-16.84-37.21,3.45-15.64,15.67-26.74,31.02-28.17,17.35-1.62,29.17,7.04,37.92,28.08,9.27-10.94,21.01-15.51,34.94-12.95,9.72,1.79,17.39,7.3,22.71,15.68,10.84,17.06,4.41,40.16-13.13,49.65-16.59,8.98-43.6,3.52-51.33-23.84Z" fill="#fff" stroke-width="0"/>
    <path d="M586.26,463.79c12.81-4.12,26.9-3.37,37.74-13.81.17,1.89.37,3.08.36,4.26-.07,10.92-.15,21.83-.27,32.74-.11,9.78-4.56,16.14-13.92,19.38-27.04,9.36-54.11,18.67-81.2,27.87-11.15,3.79-21.85-1.08-25.33-11.23-3.61-10.51,1.71-20.76,13.11-24.74,21.39-7.47,42.81-14.89,64.3-22.06,3.92-1.31,5.9-3,5.26-7.26-.26-1.68-.04-3.44-.04-5.15Z" fill="#fff" stroke-width="0"/>
  </g>
</svg>